<svg width="160" height="160" viewBox="0 0 160 160" fill="none" xmlns="http://www.w3.org/2000/svg">
<g filter="url(#filter0_d)">
<rect width="152" height="152" transform="translate(4)" fill="#EE3643"/>
<path fill-rule="evenodd" clip-rule="evenodd" d="M39.8913 35.0001C37.2296 35.0001 37 37.8101 37 37.8101V59.0846C37 63.1276 40.9912 63.0001 40.9912 63.0001H53.3745C56.0349 63.0001 55.5757 65.0555 55.5757 65.0555C55.5757 65.0555 52.1811 82.971 51.8154 86.0018C51.4483 89.0355 49.2472 90.9647 49.2472 90.9647C49.2472 90.9647 46.3119 92.6186 45.1199 93.2617C43.9279 93.9047 43.9279 97.0001 43.9279 97.0001H87V95.2818C87 93.2617 77.4977 90.9647 73.9217 90.5971C70.3444 90.2308 71.0785 87.8402 71.0785 87.8402L72.5455 77.0923H76.6728L78.2319 66.2508H74.1046L74.5597 63.0001H86.3958C94.3768 62.1725 100 56.6968 100 56.6968V40.1584C93.6715 35.6568 83.7354 35.0001 83.7354 35.0001H39.8913ZM119.541 45.0001H138.085C138.876 45.0001 140 46.6708 140 48.5001C140 50.3295 138.876 52.0001 138.085 52.0001H119.541C118.688 55.0495 116.693 57.0001 114.369 57.0001H104V40.0001H114.369C116.694 40.0001 118.688 41.9508 119.541 45.0001ZM46.6004 119C44 119 44 116.176 44 116.176V101.019H87V116.268C87 118.747 84.2144 119 84.2144 119H46.6004ZM86 42.523V42.4772C86 41.6648 85.3806 41.0001 84.6237 41.0001H43.3763C42.6193 41.0001 42 41.6648 42 42.4772V42.523C42 43.3354 42.6193 44.0001 43.3763 44.0001H84.6237C85.3806 44.0001 86 43.3354 86 42.523Z" fill="white"/>
</g>
<defs>
<filter id="filter0_d" x="0" y="0" width="160" height="160" filterUnits="userSpaceOnUse" color-interpolation-filters="sRGB">
<feFlood flood-opacity="0" result="BackgroundImageFix"/>
<feColorMatrix in="SourceAlpha" type="matrix" values="0 0 0 0 0 0 0 0 0 0 0 0 0 0 0 0 0 0 127 0"/>
<feOffset dy="4"/>
<feGaussianBlur stdDeviation="2"/>
<feColorMatrix type="matrix" values="0 0 0 0 0 0 0 0 0 0 0 0 0 0 0 0 0 0 0.25 0"/>
<feBlend mode="normal" in2="BackgroundImageFix" result="effect1_dropShadow"/>
<feBlend mode="normal" in="SourceGraphic" in2="effect1_dropShadow" result="shape"/>
</filter>
</defs>
</svg>
